{
  "accessors": [
    {
      "bufferView": 2,
      "componentType": 5126,
      "count": 14888,
      "max": [
        64.23469543457031,
        0.05334451049566269,
        4.506623268127441
      ],
      "min": [
        -4.700243949890137,
        -0.1837421953678131,
        -64.03909301757813
      ],
      "type": "VEC3"
    },
    {
      "bufferView": 2,
      "byteOffset": 178656,
      "componentType": 5126,
      "count": 14888,
      "max": [
        0.9713559746742249,
        -0.23708447813987732,
        0.9667530059814453
      ],
      "min": [
        -0.9667458534240723,
        -1.0,
        -0.9667620658874512
      ],
      "type": "VEC3"
    },
    {
      "bufferView": 1,
      "componentType": 5126,
      "count": 14888,
      "max": [
        0.9828985929489136,
        0.05493354797363281
      ],
      "min": [
        0.5660064220428467,
        0.010549962520599365
      ],
      "type": "VEC2"
    },
    {
      "bufferView": 0,
      "componentType": 5125,
      "count": 18648,
      "type": "SCALAR"
    },
    {
      "bufferView": 2,
      "byteOffset": 357312,
      "componentType": 5126,
      "count": 24213,
      "max": [
        42.68421936035156,
        3.895881175994873,
        85.36698150634766
      ],
      "min": [
        -42.68421936035156,
        -3.895881175994873,
        0.0
      ],
      "type": "VEC3"
    },
    {
      "bufferView": 2,
      "byteOffset": 647868,
      "componentType": 5126,
      "count": 24213,
      "max": [
        0.999909520149231,
        1.0,
        1.0
      ],
      "min": [
        -0.9999712705612183,
        -1.0,
        -1.0
      ],
      "type": "VEC3"
    },
    {
      "bufferView": 1,
      "byteOffset": 119104,
      "componentType": 5126,
      "count": 24213,
      "max": [
        1.00245201587677,
        1.0003913640975952
      ],
      "min": [
        -0.00030819204403087497,
        0.0011995434761047363
      ],
      "type": "VEC2"
    },
    {
      "bufferView": 0,
      "byteOffset": 74592,
      "componentType": 5125,
      "count": 74409,
      "type": "SCALAR"
    },
    {
      "bufferView": 2,
      "byteOffset": 938424,
      "componentType": 5126,
      "count": 6245,
      "max": [
        36.525535583496094,
        5.268872261047363,
        65.07256317138672
      ],
      "min": [
        -36.525535583496094,
        -5.99293327331543,
        0.0
      ],
      "type": "VEC3"
    },
    {
      "bufferView": 2,
      "byteOffset": 1013364,
      "componentType": 5126,
      "count": 6245,
      "max": [
        0.9999332427978516,
        0.9998058080673218,
        0.9998791217803955
      ],
      "min": [
        -0.999981164932251,
        -1.0,
        -0.9998791813850403
      ],
      "type": "VEC3"
    },
    {
      "bufferView": 1,
      "byteOffset": 312808,
      "componentType": 5126,
      "count": 6245,
      "max": [
        0.8113312125205994,
        0.9849901795387268
      ],
      "min": [
        0.011195866391062737,
        0.009627223014831543
      ],
      "type": "VEC2"
    },
    {
      "bufferView": 0,
      "byteOffset": 372228,
      "componentType": 5125,
      "count": 30981,
      "type": "SCALAR"
    }
  ],
  "asset": {
    "extras": {
      "author": "Nomnivore (https://sketchfab.com/nomnivore)",
      "license": "CC-BY-4.0 (http://creativecommons.org/licenses/by/4.0/)",
      "source": "https://sketchfab.com/3d-models/showdown-environment-brawl-stars-cd52fd8a7f174e4f85f30db65be88c60",
      "title": "Showdown Environment (Brawl Stars)"
    },
    "generator": "Sketchfab-14.5.0",
    "version": "2.0"
  },
  "bufferViews": [
    {
      "buffer": 0,
      "byteLength": 496152,
      "name": "floatBufferViews",
      "target": 34963
    },
    {
      "buffer": 0,
      "byteLength": 362768,
      "byteOffset": 496152,
      "byteStride": 8,
      "name": "floatBufferViews",
      "target": 34962
    },
    {
      "buffer": 0,
      "byteLength": 1088304,
      "byteOffset": 858920,
      "byteStride": 12,
      "name": "floatBufferViews",
      "target": 34962
    }
  ],
  "buffers": [
    {
      "byteLength": 1947224,
      "uri": "scene.bin"
    }
  ],
  "images": [
    {
      "uri": "textures/Nila_baseColor.jpeg"
    },
    {
      "uri": "textures/Denver_baseColor.jpeg"
    }
  ],
  "materials": [
    {
      "doubleSided": true,
      "name": "Nila",
      "pbrMetallicRoughness": {
        "baseColorTexture": {
          "index": 0
        },
        "metallicFactor": 0.0
      }
    },
    {
      "doubleSided": true,
      "name": "Denver",
      "pbrMetallicRoughness": {
        "baseColorTexture": {
          "index": 1
        },
        "metallicFactor": 0.0
      }
    }
  ],
  "meshes": [
    {
      "name": "Object_0",
      "primitives": [
        {
          "attributes": {
            "NORMAL": 1,
            "POSITION": 0,
            "TEXCOORD_0": 2
          },
          "indices": 3,
          "material": 0,
          "mode": 4
        }
      ]
    },
    {
      "name": "Object_1",
      "primitives": [
        {
          "attributes": {
            "NORMAL": 5,
            "POSITION": 4,
            "TEXCOORD_0": 6
          },
          "indices": 7,
          "material": 0,
          "mode": 4
        }
      ]
    },
    {
      "name": "Object_2",
      "primitives": [
        {
          "attributes": {
            "NORMAL": 9,
            "POSITION": 8,
            "TEXCOORD_0": 10
          },
          "indices": 11,
          "material": 1,
          "mode": 4
        }
      ]
    }
  ],
  "nodes": [
    {
      "children": [
        1
      ],
      "matrix": [
        1.0,
        0.0,
        0.0,
        0.0,
        0.0,
        2.220446049250313e-16,
        -1.0,
        0.0,
        0.0,
        1.0,
        2.220446049250313e-16,
        0.0,
        0.0,
        0.0,
        0.0,
        1.0
      ],
      "name": "Sketchfab_model"
    },
    {
      "children": [
        2
      ],
      "name": "root"
    },
    {
      "children": [
        3,
        5,
        7
      ],
      "matrix": [
        1.0,
        0.0,
        0.0,
        0.0,
        0.0,
        2.220446049250313e-16,
        1.0,
        0.0,
        0.0,
        -1.0,
        2.220446049250313e-16,
        0.0,
        0.0,
        0.0,
        0.0,
        1.0
      ],
      "name": "GLTF_SceneRootNode"
    },
    {
      "children": [
        4
      ],
      "matrix": [
        0.0055181244388222694,
        0.0,
        -0.0,
        0.0,
        -0.0,
        -0.0055181244388222694,
        -2.450539521890902e-18,
        0.0,
        0.0,
        2.450539521890902e-18,
        -0.0055181244388222694,
        0.0,
        -0.16394558548927307,
        0.003999295644462109,
        -0.16851091384887695,
        1.0
      ],
      "name": "Plane_028-mesh_cms_0"
    },
    {
      "mesh": 0,
      "name": "Object_4"
    },
    {
      "children": [
        6
      ],
      "matrix": [
        0.0055181244388222694,
        0.0,
        0.0,
        0.0,
        -0.0,
        -0.0055181244388222694,
        -2.450539521890902e-18,
        0.0,
        0.0,
        2.450539521890902e-18,
        -0.0055181244388222694,
        0.0,
        0.0,
        0.02164464257657528,
        0.23553282022476196,
        1.0
      ],
      "name": "Merged Objects_1"
    },
    {
      "mesh": 1,
      "name": "Object_6"
    },
    {
      "children": [
        8
      ],
      "matrix": [
        0.0055181244388222694,
        0.0,
        0.0,
        0.0,
        0.0,
        -0.0055181244388222694,
        -2.450539521890902e-18,
        0.0,
        0.0,
        2.450539521890902e-18,
        -0.0055181244388222694,
        0.0,
        0.004355606622993946,
        0.03306975215673447,
        0.1567288488149643,
        1.0
      ],
      "name": "cactus_2"
    },
    {
      "mesh": 2,
      "name": "Object_8"
    }
  ],
  "samplers": [
    {
      "magFilter": 9729,
      "minFilter": 9729,
      "wrapS": 10497,
      "wrapT": 10497
    }
  ],
  "scene": 0,
  "scenes": [
    {
      "name": "Sketchfab_Scene",
      "nodes": [
        0
      ]
    }
  ],
  "textures": [
    {
      "sampler": 0,
      "source": 0
    },
    {
      "sampler": 0,
      "source": 1
    }
  ]
}
