{
	"asset":{
		"generator":"Khronos glTF Blender I/O v4.2.69",
		"version":"2.0"
	},
	"scene":0,
	"scenes":[
		{
			"name":"Scene",
			"nodes":[
				0,
				1,
				2
			]
		}
	],
	"nodes":[
		{
			"mesh":0,
			"name":"Landscape_2",
			"scale":[
				59.531494140625,
				48,
				59.531494140625
			],
			"translation":[
				0,
				-0.10754227638244629,
				0
			]
		},
		{
			"mesh":1,
			"name":"Plane_1",
			"scale":[
				145.0287322998047,
				90.64295196533203,
				145.0287322998047
			],
			"translation":[
				0,
				0.7227679491043091,
				0
			]
		},
		{
			"mesh":2,
			"name":"Circle_1",
			"scale":[
				1.600000023841858,
				1.600000023841858,
				1.600000023841858
			],
			"translation":[
				0,
				4.4914116859436035,
				0
			]
		}
	],
	"meshes":[
		{
			"name":"Landscape_3",
			"primitives":[
				{
					"attributes":{
						"POSITION":0,
						"NORMAL":1,
						"TEXCOORD_0":2
					},
					"indices":3
				}
			]
		},
		{
			"name":"Plane_5",
			"primitives":[
				{
					"attributes":{
						"POSITION":4,
						"NORMAL":5,
						"TEXCOORD_0":6
					},
					"indices":7
				}
			]
		},
		{
			"name":"Circle_1",
			"primitives":[
				{
					"attributes":{
						"POSITION":8,
						"NORMAL":9,
						"TEXCOORD_0":10
					},
					"indices":11
				}
			]
		}
	],
	"accessors":[
		{
			"bufferView":0,
			"componentType":5126,
			"count":12950,
			"max":[
				1.1884496212005615,
				0.6453515291213989,
				1.4092200994491577
			],
			"min":[
				-1.3018146753311157,
				-0.019686603918671608,
				-1.182849407196045
			],
			"type":"VEC3"
		},
		{
			"bufferView":1,
			"componentType":5126,
			"count":12950,
			"type":"VEC3"
		},
		{
			"bufferView":2,
			"componentType":5126,
			"count":12950,
			"type":"VEC2"
		},
		{
			"bufferView":3,
			"componentType":5123,
			"count":76200,
			"type":"SCALAR"
		},
		{
			"bufferView":4,
			"componentType":5126,
			"count":20,
			"max":[
				0.6999999284744263,
				0,
				0.6999999284744263
			],
			"min":[
				-0.6999999284744263,
				-0.1853155493736267,
				-0.6999999284744263
			],
			"type":"VEC3"
		},
		{
			"bufferView":5,
			"componentType":5126,
			"count":20,
			"type":"VEC3"
		},
		{
			"bufferView":6,
			"componentType":5126,
			"count":20,
			"type":"VEC2"
		},
		{
			"bufferView":7,
			"componentType":5123,
			"count":30,
			"type":"SCALAR"
		},
		{
			"bufferView":8,
			"componentType":5126,
			"count":768,
			"max":[
				33.960105895996094,
				-0.1240081936120987,
				33.960105895996094
			],
			"min":[
				-33.960105895996094,
				-0.2778083086013794,
				-33.960105895996094
			],
			"type":"VEC3"
		},
		{
			"bufferView":9,
			"componentType":5126,
			"count":768,
			"type":"VEC3"
		},
		{
			"bufferView":10,
			"componentType":5126,
			"count":768,
			"type":"VEC2"
		},
		{
			"bufferView":11,
			"componentType":5123,
			"count":1536,
			"type":"SCALAR"
		}
	],
	"bufferViews":[
		{
			"buffer":0,
			"byteLength":155400,
			"byteOffset":0,
			"target":34962
		},
		{
			"buffer":0,
			"byteLength":155400,
			"byteOffset":155400,
			"target":34962
		},
		{
			"buffer":0,
			"byteLength":103600,
			"byteOffset":310800,
			"target":34962
		},
		{
			"buffer":0,
			"byteLength":152400,
			"byteOffset":414400,
			"target":34963
		},
		{
			"buffer":0,
			"byteLength":240,
			"byteOffset":566800,
			"target":34962
		},
		{
			"buffer":0,
			"byteLength":240,
			"byteOffset":567040,
			"target":34962
		},
		{
			"buffer":0,
			"byteLength":160,
			"byteOffset":567280,
			"target":34962
		},
		{
			"buffer":0,
			"byteLength":60,
			"byteOffset":567440,
			"target":34963
		},
		{
			"buffer":0,
			"byteLength":9216,
			"byteOffset":567500,
			"target":34962
		},
		{
			"buffer":0,
			"byteLength":9216,
			"byteOffset":576716,
			"target":34962
		},
		{
			"buffer":0,
			"byteLength":6144,
			"byteOffset":585932,
			"target":34962
		},
		{
			"buffer":0,
			"byteLength":3072,
			"byteOffset":592076,
			"target":34963
		}
	],
	"buffers":[
		{
			"byteLength":595148,
			"uri":"terrain.bin"
		}
	]
}
